<svg id="visual" viewBox="0 0 900 600" width="900" height="600" xmlns="http://www.w3.org/2000/svg" xmlns:xlink="http://www.w3.org/1999/xlink" version="1.1"><rect width="900" height="600" fill="#001829"></rect><g><g transform="translate(867 537)"><path d="M0 -77.2L45.4 -62.5L73.4 -23.9L73.4 23.9L45.4 62.5L0 77.2L-45.4 62.5L-73.4 23.9L-73.4 -23.9L-45.4 -62.5Z" fill="#297EA6"></path></g><g transform="translate(410 567)"><path d="M0 -73L42.9 -59.1L69.4 -22.6L69.4 22.6L42.9 59.1L0 73L-42.9 59.1L-69.4 22.6L-69.4 -22.6L-42.9 -59.1Z" fill="#297EA6"></path></g><g transform="translate(423 4)"><path d="M0 -60L35.3 -48.5L57.1 -18.5L57.1 18.5L35.3 48.5L0 60L-35.3 48.5L-57.1 18.5L-57.1 -18.5L-35.3 -48.5Z" fill="#297EA6"></path></g><g transform="translate(591 222)"><path d="M0 -51L30 -41.3L48.5 -15.8L48.5 15.8L30 41.3L0 51L-30 41.3L-48.5 15.8L-48.5 -15.8L-30 -41.3Z" fill="#297EA6"></path></g><g transform="translate(213 263)"><path d="M0 -71L41.7 -57.4L67.5 -21.9L67.5 21.9L41.7 57.4L0 71L-41.7 57.4L-67.5 21.9L-67.5 -21.9L-41.7 -57.4Z" fill="#297EA6"></path></g><g transform="translate(830 12)"><path d="M0 -56L32.9 -45.3L53.3 -17.3L53.3 17.3L32.9 45.3L0 56L-32.9 45.3L-53.3 17.3L-53.3 -17.3L-32.9 -45.3Z" fill="#297EA6"></path></g><g transform="translate(13 482)"><path d="M0 -68L40 -55L64.7 -21L64.7 21L40 55L0 68L-40 55L-64.7 21L-64.7 -21L-40 -55Z" fill="#297EA6"></path></g><g transform="translate(568 448)"><path d="M0 -50L29.4 -40.5L47.6 -15.5L47.6 15.5L29.4 40.5L0 50L-29.4 40.5L-47.6 15.5L-47.6 -15.5L-29.4 -40.5Z" fill="#297EA6"></path></g></g></svg>